<?xml version="1.0" encoding="utf-8"?>
<!-- Generator: Adobe Illustrator 22.1.0, SVG Export Plug-In . SVG Version: 6.00 Build 0)  -->
<svg version="1.0" id="Layer_1" xmlns="http://www.w3.org/2000/svg" xmlns:xlink="http://www.w3.org/1999/xlink" x="0px" y="0px"
	 viewBox="0 0 300 300" enable-background="new 0 0 300 300" xml:space="preserve">
<path fill="#FFFFFF" d="M150,0C67.2,0,0,67.2,0,150s67.2,150,150,150s150-67.2,150-150S232.8,0,150,0z M265,175h-90v90
	c0,5.5-4.5,10-10,10h-30c-5.5,0-10-4.5-10-10v-90H35c-5.5,0-10-4.5-10-10v-30c0-5.5,4.5-10,10-10h90V35c0-5.5,4.5-10,10-10h30
	c5.5,0,10,4.5,10,10v90h90c5.5,0,10,4.5,10,10v30C275,170.5,270.5,175,265,175z"/>
</svg>
